<svg id="BACK_FRONT" data-name="BACK FRONT" xmlns="http://www.w3.org/2000/svg" xmlns:xlink="http://www.w3.org/1999/xlink" viewBox="0 0 1334 750"><defs><style>.cls-1{fill:url(#Dégradé_sans_nom_42);}.cls-2{fill:#2d2d2d;}.cls-3{fill:#212020;}.cls-4{fill:#660101;}.cls-5{fill:url(#Dégradé_sans_nom_20);}.cls-6{fill:#cecece;}.cls-7{opacity:0.2;}.cls-10,.cls-12,.cls-13,.cls-14,.cls-15,.cls-16,.cls-17,.cls-8{font-size:75.17px;fill:none;stroke-linecap:round;stroke-linejoin:round;font-family:Comfortaa, Comfortaa;}.cls-8{stroke:#ba00a0;stroke-width:10px;}.cls-9{opacity:0.25;}.cls-10,.cls-13,.cls-16{stroke:#c1272d;}.cls-10{stroke-width:8.5px;}.cls-11{opacity:0.3;}.cls-12{stroke:#9e005d;stroke-width:5px;}.cls-13{stroke-width:7px;}.cls-14{stroke:#93278f;stroke-width:5.5px;}.cls-15{stroke:#ed1e79;stroke-width:4px;}.cls-16{stroke-width:3px;}.cls-17{stroke:#a3bce2;}</style><linearGradient id="Dégradé_sans_nom_42" x1="125" y1="351.2" x2="125" y2="493.71" gradientUnits="userSpaceOnUse"><stop offset="0" stop-color="#ff0" stop-opacity="0.5"/><stop offset="1" stop-color="#fff" stop-opacity="0"/></linearGradient><linearGradient id="Dégradé_sans_nom_20" x1="102.94" y1="503.84" x2="102.94" y2="275.82" gradientUnits="userSpaceOnUse"><stop offset="0" stop-color="#545454"/><stop offset="1" stop-color="#333"/></linearGradient></defs><title>HOME OMB_OutsideBar_03</title><polygon class="cls-1" points="40 333 320 634 -70 634 40 333"/><path class="cls-2" d="M3.45,224H346.05A16.95,16.95,0,0,1,363,241v0a16.95,16.95,0,0,1-16.95,16.95H3.45A3.45,3.45,0,0,1,0,254.49v-27A3.45,3.45,0,0,1,3.45,224Z"/><polygon class="cls-3" points="1.69 103 0 224.04 331 224.04 1.69 103"/><path class="cls-4" d="M311.32,257.94v28.24a19.51,19.51,0,0,0,19.46,19.46h0a19.51,19.51,0,0,0,19.46-19.46V257.94Z"/><path class="cls-5" d="M0,258v78H36v68.27H0v6.47H36V479H0V634H205.87V258ZM110,479H41V410.73h69Zm0-74.73H41V336h69Z"/><path class="cls-6" d="M38.91,257.94v28.24a19.51,19.51,0,0,0,19.46,19.46h0a19.51,19.51,0,0,0,19.46-19.46V257.94Z"/><path class="cls-4" d="M0,257.94v28.24a19.51,19.51,0,0,0,19.46,19.46h0a19.51,19.51,0,0,0,19.46-19.46V257.94Z"/><path class="cls-6" d="M116.74,257.94v28.24a19.51,19.51,0,0,0,19.46,19.46h0a19.51,19.51,0,0,0,19.46-19.46V257.94Z"/><path class="cls-6" d="M194.57,257.94v28.24A19.51,19.51,0,0,0,214,305.64h0a19.51,19.51,0,0,0,19.46-19.46V257.94Z"/><path class="cls-4" d="M233.49,257.94v28.24a19.51,19.51,0,0,0,19.46,19.46h0a19.51,19.51,0,0,0,19.46-19.46V257.94Z"/><path class="cls-6" d="M272.4,257.94v28.24a19.51,19.51,0,0,0,19.46,19.46h0a19.51,19.51,0,0,0,19.46-19.46V257.94Z"/><path class="cls-4" d="M77.83,257.94v28.24a19.51,19.51,0,0,0,19.46,19.46h0a19.51,19.51,0,0,0,19.46-19.46V257.94Z"/><path class="cls-4" d="M155.66,257.94v28.24a19.51,19.51,0,0,0,19.46,19.46h0a19.51,19.51,0,0,0,19.46-19.46V257.94Z"/><g class="cls-7"><text class="cls-8" transform="translate(193 241.13)">BAR</text></g><g class="cls-9"><text class="cls-10" transform="translate(193 241.13)">BAR</text></g><g class="cls-11"><text class="cls-12" transform="translate(193 241.13)">BAR</text></g><text class="cls-13" transform="translate(193 241.13)">BAR</text><text class="cls-14" transform="translate(193 241.13)">BAR</text><text class="cls-15" transform="translate(193 241.13)">BAR</text><text class="cls-16" transform="translate(193 241.13)">BAR</text><text class="cls-17" transform="translate(193 241.13)">BAR</text></svg>