<svg id="back" xmlns="http://www.w3.org/2000/svg" xmlns:xlink="http://www.w3.org/1999/xlink" viewBox="0 0 1335.32 750"><defs><style>.cls-1{fill:url(#Dégradé_sans_nom_114);}.cls-2{fill:url(#Dégradé_sans_nom_126);}.cls-3{fill:url(#Dégradé_sans_nom_129);}.cls-4{fill:url(#Dégradé_sans_nom_131);}.cls-5{fill:url(#Dégradé_sans_nom_131-2);}.cls-6{opacity:0.4;fill:url(#linear-gradient);}.cls-7{fill:#fffafc;opacity:0.6;}</style><linearGradient id="Dégradé_sans_nom_114" x1="668.32" y1="456.31" x2="668.32" y2="-4.04" gradientUnits="userSpaceOnUse"><stop offset="0" stop-color="#cbddf3"/><stop offset="0.47" stop-color="#1b75bb"/><stop offset="0.56" stop-color="#1e62a6"/><stop offset="0.75" stop-color="#223f81"/><stop offset="0.9" stop-color="#252a6a"/><stop offset="1" stop-color="#262261"/></linearGradient><linearGradient id="Dégradé_sans_nom_126" x1="663.32" y1="605.36" x2="663.32" y2="364.93" gradientTransform="matrix(-1, 0, 0, 1, 1331, 0)" gradientUnits="userSpaceOnUse"><stop offset="0" stop-color="#ffc2c2"/><stop offset="0.22" stop-color="#84c6de"/><stop offset="0.49" stop-color="#688bab"/><stop offset="1" stop-color="#31485c"/></linearGradient><linearGradient id="Dégradé_sans_nom_129" x1="667" y1="748.83" x2="667" y2="509.88" gradientUnits="userSpaceOnUse"><stop offset="0" stop-color="#aad7fd"/><stop offset="1" stop-color="#537b9e"/></linearGradient><linearGradient id="Dégradé_sans_nom_131" x1="668.07" y1="744.49" x2="668.07" y2="610.19" gradientUnits="userSpaceOnUse"><stop offset="0" stop-color="#241538"/><stop offset="1" stop-color="#6d365b"/></linearGradient><linearGradient id="Dégradé_sans_nom_131-2" x1="666.34" y1="749.76" x2="666.34" y2="645.6" xlink:href="#Dégradé_sans_nom_131"/><linearGradient id="linear-gradient" x1="666.5" y1="632.66" x2="666.5" y2="651.06" gradientUnits="userSpaceOnUse"><stop offset="0" stop-color="#ffc2c2"/><stop offset="0.22" stop-color="#ffa8a1"/><stop offset="0.49" stop-color="#e97079"/><stop offset="1" stop-color="#793b5b"/></linearGradient></defs><title>HOME OMB_back_01</title><polygon class="cls-1" points="1.32 0 1.32 559 1335.32 559 1335.32 0.26 1.32 0"/><path class="cls-2" d="M32.47,452.34l59.8-7,27.63,19-.41-11.21,28,.69L150,432.17,174,429l7-24h0l15,2,65-1h-.13L307,394l90,4,47.42,11.36,54,3.48.41,23.2,19.38,1.16,2.47,47.94L543,486.69l4.12-41.37L569,439.13l-1.65-36L656,398.92l5.36,24,15.26,2.91.29-39.75,28,22,8.66,28.61,40.82,2.32-2.06-28.23,62.27-3.87,1.65-38.28,13.2.39s15-20.45,18.33-21.74l74.62-29a5.47,5.47,0,0,1,1.37-.34l47.12,23.19,29.69,4.25,4.54,19.33,25.15-1.55,3.3-11.6,23.5,7-5.36,39.82,53.19-.39,9.48-24.75,40.41,1.16,8.66,25.52,37.11,2.32V381.72l22.68,2.71V424l28.45-14.36,12,20.11,39.59-.39,2.06,6.83,13.61-4.64-1.24-10.39,16.33-1V573.27l-656.69-.52v.4L1.36,572.62V455" transform="translate(1.32)"/><path class="cls-3" d="M0,509.88v238.6l658.24.14v.07l675.76.14-.54-238.37S1175.26,537.32,1121,537c-90.92-.54-366.76-17.3-366.76-17.3s-313.42,15.73-416.75,0c-48.19-7.34-143.9,4.25-192.49,4.3C107.61,524,0,509.88,0,509.88Z" transform="translate(1.32)"/><polygon class="cls-4" points="1335.16 668.28 672.47 669.71 672.47 667.67 0.97 667.67 0.97 749.84 1335.16 750 1335.16 668.28"/><path class="cls-5" d="M-1.32,634.22.34,692.68c56.94-3.29,114.11-9.58,143.13-9.1,53.84.88,85.59,5.3,93.88,12.37s24.85,37.12,33.13,35.35,4.58-1.66,11.49-6.08,5.44-10.63,17.86-14.17,31.39-9.8,43.82-6.27c4.69,1.33,34-5.63,66.93-7.15,54.31-2.51,120.82-.8,120.82-.8,81.3,15,125.46,5.34,133.86,5.3,0,.94,24.22.34,27.56.34,8.28,0,22.09,15,34.51,13.26s16.57-12.37,31.75-11.49a38,38,0,0,0,24.85-7.07c22.09,1.77,113.2-1.77,167-13.26s187.75-4.42,187.75-4.42,16.57,17.67,51.08,27.4,53.84-16.79,53.84-16.79,42.8-.88,51.08-.88c5.7,0,24.08,3.19,38.79,3.3l.48-58.31S76.56,633.19-1.32,634.22Z" transform="translate(1.32)"/><path class="cls-6" d="M1333.31,634.22-1,633.58v16.54s129.51-3.51,266-7.2c87-2.35,208.22-4.48,312.57-3.14,75.85,1,142.76,6.42,181.1,2.07,60.29-6.84,288.36-4.63,435.65-2.35A1126.52,1126.52,0,0,1,1334,650.76Z" transform="translate(1.32)"/><path class="cls-7" d="M38.59,161H381s-90.56-6.19-93.38-7.43-1.89-13.62-37.73-5c0,0-12.26-16.1-38.67-3.71,0,0-25.47-35.91-58.48-1.24,0,0-29.24-7.43-42.45,7.43Z" transform="translate(1.32)"/><path class="cls-7" d="M1267.59,266H1202s17.35-3.08,17.89-3.7.36-6.78,7.23-2.46c0,0,2.35-8,7.41-1.85,0,0,4.88-17.87,11.2-.62,0,0,5.6-3.7,8.13,3.7Z" transform="translate(1.32)"/><path class="cls-7" d="M1092.6,91H959s35.34-6.28,36.44-7.53.74-13.81,14.72-5c0,0,4.79-16.32,15.09-3.77,0,0,9.94-36.41,22.82-1.26,0,0,11.41-7.53,16.56,7.53Z" transform="translate(1.32)"/></svg>